<svg id="Toggles" xmlns="http://www.w3.org/2000/svg" width="58.5" height="32.651" viewBox="0 0 58.5 32.651">
  <path id="Path_1218" data-name="Path 1218" d="M17.55,0h23.4C50.643,0,58.5,7.309,58.5,16.326S50.643,32.651,40.95,32.651H17.55C7.857,32.651,0,25.342,0,16.326S7.857,0,17.55,0Z" transform="translate(0)" fill="#6b6b6c"/>
  <g id="Path_1217" data-name="Path 1217" transform="translate(3.865 3.633)" fill="rgba(251,251,251,0.96)">
    <path d="M 12.69216728210449 25.13433647155762 C 9.368747711181641 25.13433647155762 6.244237422943115 23.84012794494629 3.894227266311646 21.4901065826416 C 1.544207334518433 19.14009666442871 0.2499972879886627 16.01558685302734 0.2499972879886627 12.69216728210449 C 0.2499972879886627 9.368747711181641 1.544207334518433 6.244237422943115 3.894227266311646 3.894227266311646 C 6.244237422943115 1.544207334518433 9.368747711181641 0.2499972879886627 12.69216728210449 0.2499972879886627 C 16.01558685302734 0.2499972879886627 19.14009666442871 1.544207334518433 21.4901065826416 3.894227266311646 C 23.84012794494629 6.244237422943115 25.13433647155762 9.368747711181641 25.13433647155762 12.69216728210449 C 25.13433647155762 16.01558685302734 23.84012794494629 19.14009666442871 21.4901065826416 21.4901065826416 C 19.14009666442871 23.84012794494629 16.01558685302734 25.13433647155762 12.69216728210449 25.13433647155762 Z" stroke="none"/>
    <path d="M 12.69216728210449 0.4999980926513672 C 9.435517311096191 0.4999980926513672 6.373796463012695 1.768207550048828 4.07099723815918 4.07099723815918 C 1.768207550048828 6.373796463012695 0.4999980926513672 9.435517311096191 0.4999980926513672 12.69216728210449 C 0.4999980926513672 15.94881725311279 1.768207550048828 19.01053619384766 4.07099723815918 21.3133373260498 C 6.373796463012695 23.61612701416016 9.435517311096191 24.88433647155762 12.69216728210449 24.88433647155762 C 15.94881725311279 24.88433647155762 19.01053619384766 23.61612701416016 21.3133373260498 21.3133373260498 C 23.61612701416016 19.01053619384766 24.88433647155762 15.94881725311279 24.88433647155762 12.69216728210449 C 24.88433647155762 9.435517311096191 23.61612701416016 6.373796463012695 21.3133373260498 4.07099723815918 C 19.01053619384766 1.768207550048828 15.94881725311279 0.4999980926513672 12.69216728210449 0.4999980926513672 M 12.69216728210449 -1.9073486328125e-06 C 19.70185661315918 -1.9073486328125e-06 25.38433647155762 5.682477951049805 25.38433647155762 12.69216728210449 C 25.38433647155762 19.70185661315918 19.70185661315918 25.38433647155762 12.69216728210449 25.38433647155762 C 5.682477951049805 25.38433647155762 -1.9073486328125e-06 19.70185661315918 -1.9073486328125e-06 12.69216728210449 C -1.9073486328125e-06 5.682477951049805 5.682477951049805 -1.9073486328125e-06 12.69216728210449 -1.9073486328125e-06 Z" stroke="none" fill="#6b6b6c"/>
  </g>
</svg>
